Coordinates
version=1
nRows=13
nColumns=22
inDegrees=yes

Units are S.I. units (second, meters, Newtons, ...)
If the header above contains a line with 'inDegrees', this indicates whether rotational values are in degrees (yes) or radians (no).

endheader
time	pelvis_tilt	pelvis_list	pelvis_rotation	pelvis_tx	pelvis_ty	pelvis_tz	hip_flexion_r	hip_adduction_r	hip_rotation_r	knee_angle_r	ankle_angle_r	subtalar_angle_r	hip_flexion_l	hip_adduction_l	hip_rotation_l	knee_angle_l	ankle_angle_l	subtalar_angle_l	lumbar_extension	lumbar_bending	lumbar_rotation
      2.72000000	     -7.68096225	     -5.62624039	     -1.90170653	      0.03338195	      0.94649551	      0.23377336	      0.75365481	      7.87292665	      0.29461681	    -27.67695529	     25.35331906	      0.68985554	     40.92998504	     -4.82237859	     -0.90799124	    -32.99883013	      6.81278086	      1.37938991	     -3.30479815	      5.64698720	      8.82982597
      2.73000000	     -7.57246776	     -5.16772352	     -1.85743194	      0.04357956	      0.94719872	      0.23190134	      0.83747221	      7.22240323	      0.26881379	    -29.11933634	     24.60527192	      1.75885301	     40.51454652	     -4.29313733	     -1.12066936	    -33.63339706	      7.17618373	      1.06093390	     -3.20537909	      5.09244238	      8.65892340
      2.74000000	     -7.51111223	     -4.70930643	     -1.81237220	      0.05369579	      0.94795774	      0.22998436	      1.10143271	      6.55962729	      0.18700565	    -30.75860426	     23.69372682	      2.82905342	     40.06772228	     -3.77281094	     -1.40591038	    -34.11899715	      7.66239909	      0.77850172	     -3.05766244	      4.54545770	      8.50312094
      2.75000000	     -7.50564091	     -4.24355029	     -1.77286519	      0.06367388	      0.94874921	      0.22803749	      1.56385617	      5.87143588	      0.04087588	    -32.59908157	     22.59946634	      3.81083050	     39.59993509	     -3.25233037	     -1.74720783	    -34.45463389	      8.23594249	      0.53408696	     -2.85617903	      3.99901897	      8.35081487
      2.76000000	     -7.55321911	     -3.76692838	     -1.73155855	      0.07347463	      0.94957418	      0.22607545	      2.22299276	      5.15207241	     -0.16855713	    -34.63025964	     21.30423073	      4.65149143	     39.11494392	     -2.72115762	     -2.12393494	    -34.64605805	      8.86511485	      0.32203667	     -2.60922258	      3.44582729	      8.19002080
      2.77000000	     -7.62530873	     -3.26591632	     -1.67963069	      0.08306628	      0.95047993	      0.22409375	      3.04673745	      4.37940824	     -0.45738777	    -36.83484376	     19.76944648	      5.13438058	     38.58623586	     -2.15440551	     -2.50617884	    -34.69398547	      9.47082079	      0.19462455	     -2.35709632	      2.86597264	      8.02751321
      2.78000000	     -7.73664261	     -2.75838722	     -1.61701053	      0.09245205	      0.95140660	      0.22211117	      4.03880888	      3.57648804	     -0.77696799	    -39.18658851	     18.05488938	      5.54145947	     38.05313337	     -1.57205497	     -2.88946210	    -34.63893036	     10.09975547	      0.05460264	     -2.08030519	      2.28247148	      7.82740858
      2.79000000	     -7.87769974	     -2.23455536	     -1.54444450	      0.10162015	      0.95235924	      0.22012512	      5.18675879	      2.73047319	     -1.11812627	    -41.66979025	     16.19110523	      5.73268642	     37.50834010	     -0.96155431	     -3.26255095	    -34.48120455	     10.70446629	     -0.07517538	     -1.79417275	      1.68440592	      7.59717655
      2.80000000	     -8.06455192	     -1.70416246	     -1.46910655	      0.11055666	      0.95327947	      0.21815549	      6.50257345	      1.85859425	     -1.44741156	    -44.26312223	     14.22032678	      5.55708414	     36.98133177	     -0.33254618	     -3.60401545	    -34.23948100	     11.28870554	     -0.22018251	     -1.48125927	      1.08249573	      7.35355919
      2.81000000	     -8.23047915	     -1.13988762	     -1.38041669	      0.11931740	      0.95426514	      0.21618378	      7.89412549	      0.92868063	     -1.76078714	    -46.92363649	     12.22207837	      5.07010320	     36.39905679	      0.34135145	     -3.94775145	    -33.91158353	     11.80971282	     -0.31116653	     -1.21916481	      0.44410172	      7.06672964
      2.82000000	     -8.38895199	     -0.56470852	     -1.29357065	      0.12790134	      0.95526264	      0.21423216	      9.36590551	     -0.02633971	     -2.02878562	    -49.61820657	     10.27394419	      4.35581740	     35.78799654	      1.03923630	     -4.25302429	    -33.52028027	     12.28707246	     -0.39036438	     -0.99071956	     -0.20195684	      6.77161322
      2.83000000	     -8.52682114	     -0.00637768	     -1.20753276	      0.13630495	      0.95626860	      0.21231900	     10.88984139	     -0.97249215	     -2.25743220	    -52.30129713	      8.43084863	      3.43871114	     35.14633016	      1.73462964	     -4.50000374	    -33.08600852	     12.70725475	     -0.46899413	     -0.81479671	     -0.82765684	      6.49920766
      2.84000000	     -8.63711160	      0.57155488	     -1.12877498	      0.14458419	      0.95727394	      0.21044617	     12.44071153	     -1.93991896	     -2.41416589	    -54.92984814	      6.85686585	      2.59147686	     34.46254482	      2.44992904	     -4.75212176	    -32.60488598	     13.11332622	     -0.53331188	     -0.68961744	     -1.47042478	      6.19465155
